<?xml version="1.0" encoding="UTF-8"?>
<svg id="Layer_1" xmlns="http://www.w3.org/2000/svg" viewBox="0 0 175.05 202.45">
    <defs>
        <style>.cls-1{font-family:Raleway-Thin, Raleway;font-weight:200;}.cls-2{font-family:Raleway-Bold,
            Raleway;font-weight:700;}.cls-3{letter-spacing:0em;}.cls-4{font-size:35.89px;}.cls-4,.cls-5{fill:#fff;}.cls-5{stroke-width:0px;}
        </style>
    </defs>
    <path class="cls-5"
          d="M48.74,102.29V4.1c.62,0,15.57.02,23.42,0,6.61-.02,13.22-.08,19.83-.09,2.49,0,4.87.99,6.62,2.75,7.63,7.67,19.37,19.56,24.11,24.37,1.17,1.19,1.19,3.08.05,4.3l-17.04,18.15c6.02,6.29,12.15,12.69,18.37,19.18,2.73,2.85,2.98,7.26.57,10.39-4.6,5.98-11.76,13.48-15.43,18.19-.36.46-1.11.94-1.68.94-19.87.1-58.39.02-58.82,0ZM56.53,12.04c0,6.96.07,26.8,0,33.63-.01,1.11,44.85,47.82,47.17,50.32,3.57-4.44,12-13.73,15.15-17.63-19.14-19.69-43.23-46.68-62.32-66.31ZM115.5,32.84c-5.82-6.02-14.55-14.16-20.75-20.48-.37-.38-1.14-.48-1.72-.48-5.47.07-25.47.15-26.63.15,9.85,10.14,24.15,25.52,34.12,35.79,3.4-3.81,11.56-11.15,14.98-14.98ZM93.03,95.98c-7.56-7.67-29.16-30.56-36.5-38.01v38.01h36.5Z"/>
    <text class="cls-4" transform="translate(4.02 154.58)">
        <tspan class="cls-2">
            <tspan x="0" y="0">Beryllium</tspan>
        </tspan>
        <tspan class="cls-1">
            <tspan class="cls-3" x="24.01" y="43.07">S</tspan>
            <tspan x="45.4" y="43.07">tudios</tspan>
        </tspan>
    </text>
</svg>