<?xml version="1.0" encoding="UTF-8"?><svg id="Layer_1" xmlns="http://www.w3.org/2000/svg" viewBox="0 0 150 150"><defs><style>.cls-1{fill:#000;}.cls-1,.cls-2{stroke-width:0px;}.cls-2{fill:#fff;}</style></defs><rect class="cls-1" x="-2.2" y="-2.63" width="154.39" height="154.39"/><path class="cls-2" d="M36.21,123.68V25.49c.62,0,15.57.02,23.42,0,6.61-.02,13.22-.08,19.83-.09,2.49,0,4.87.99,6.62,2.75,7.63,7.67,19.37,19.56,24.11,24.37,1.17,1.19,1.19,3.08.05,4.3l-17.04,18.15c6.02,6.29,12.15,12.69,18.37,19.18,2.73,2.85,2.98,7.26.57,10.39-4.6,5.98-11.76,13.48-15.43,18.19-.36.46-1.11.94-1.68.94-19.87.1-58.39.02-58.82,0ZM44,33.43c0,6.96.07,26.8,0,33.63-.01,1.11,44.85,47.82,47.17,50.32,3.57-4.44,12-13.73,15.15-17.63-19.14-19.69-43.23-46.68-62.32-66.31ZM102.98,54.23c-5.82-6.02-14.55-14.16-20.75-20.48-.37-.38-1.14-.48-1.72-.48-5.47.07-25.47.15-26.63.15,9.85,10.14,24.15,25.52,34.12,35.79,3.4-3.81,11.56-11.15,14.98-14.98ZM80.51,117.37c-7.56-7.67-29.16-30.56-36.5-38.01v38.01h36.5Z"/></svg>