<?xml version="1.0" encoding="UTF-8"?><svg id="Layer_1" xmlns="http://www.w3.org/2000/svg" viewBox="0 0 418.86 50.44"><defs><style>.cls-1{fill:#fff;stroke-width:0px;}</style></defs><path class="cls-1" d="M18.26,38.15H.55V1.5h19.61c5.16,0,8.36,4.75,8.36,9.34,0,3.56-1.86,7.02-5.26,8.52,4.18,1.24,6.81,4.54,6.81,9.34,0,6.14-5.37,9.45-11.82,9.45ZM7.68,16.83h9.5c2.38,0,4.34-1.75,4.34-4.65s-1.76-4.59-4.03-4.59H7.68v9.24ZM18.62,22.46H7.68v9.65h10.58c2.58,0,4.65-2.12,4.65-4.75s-1.86-4.9-4.28-4.9Z"/><path class="cls-1" d="M33.28,24.78c0-7.69,5.47-14.14,14.3-14.14s14.09,6.56,14.09,13.89c0,.88-.05,1.76-.16,2.32h-20.91c.36,4.23,3.56,6.76,7.17,6.76,2.74,0,5.52-1.45,6.4-3.66l5.94,1.65c-1.96,4.13-6.61,7.07-12.6,7.07-8.72,0-14.25-6.4-14.25-13.89ZM54.6,22.46c-.41-4.08-3.36-6.81-7.12-6.81s-6.66,2.74-7.02,6.81h14.14Z"/><path class="cls-1" d="M72.82,21.79v16.36h-6.92V11.1h6.35v5.78c1.91-3.66,5.06-5.99,8.36-6.14.72,0,1.08,0,1.39.05v6.3c-4.18.05-7.74,1.65-9.19,4.7Z"/><path class="cls-1" d="M89.54,43.93c1.86,0,2.79-1.19,4.18-5.78l-10.69-27.05h7.17l7.28,19.98,6.4-19.98h6.61l-11.36,32.42c-1.24,3.72-4.59,6.45-9.24,6.45-1.08,0-2.22-.15-3.46-.57v-5.99c1.19.31,2.38.52,3.1.52Z"/><path class="cls-1" d="M121.14.47v29.01c0,2.53.88,3.15,2.32,3.15,1.14,0,2.38-.31,3.25-.72l.93,5.27c-1.86.88-4.59,1.39-6.61,1.39-4.28,0-6.81-2.43-6.81-6.66V.47h6.92Z"/><path class="cls-1" d="M137.5.47v29.01c0,2.53.88,3.15,2.32,3.15,1.14,0,2.38-.31,3.25-.72l.93,5.27c-1.86.88-4.59,1.39-6.61,1.39-4.28,0-6.81-2.43-6.81-6.66V.47h6.92Z"/><path class="cls-1" d="M147,.47h6.92v6.87h-6.92V.47ZM147,11.1h6.92v27.05h-6.92V11.1Z"/><path class="cls-1" d="M159.9,11.1h6.92v15.43c0,4.13,1.55,6.25,4.49,6.25,2.68,0,5.37-1.6,6.97-4.9V11.1h6.92v19.31c0,1.5.46,2.01,1.65,2.12v5.63c-1.39.26-2.22.31-2.99.31-2.48,0-4.13-1.19-4.39-3.2l-.15-2.17c-2.43,3.72-6.35,5.58-10.89,5.58-5.57,0-8.52-3.67-8.52-10.63V11.1Z"/><path class="cls-1" d="M227.16,38.15v-15.18c0-4.29-1.55-6.25-4.18-6.25s-5.42,2.32-6.45,5.68v15.74h-6.92v-15.18c0-4.34-1.55-6.25-4.18-6.25s-5.42,2.27-6.45,5.63v15.8h-6.92V11.1h6.25v5.01c2.01-3.51,5.63-5.47,10.07-5.47s6.97,2.53,7.64,5.73c2.17-3.72,5.68-5.73,9.96-5.73,6.66,0,8.1,5.42,8.1,10.63v16.88h-6.92Z"/><path class="cls-1" d="M265.51,2.23c-8.36,0-11.87,3.46-11.87,8.78s3.41,6.66,11.56,8.31c8.16,1.65,13.32,3.41,13.32,9.86,0,5.94-4.9,9.24-12.91,9.24-5.88,0-10.32-1.81-14.25-5.68l.78-.67c3.72,3.82,7.95,5.47,13.52,5.47,7.28,0,11.82-2.74,11.82-8.21s-3.77-7.38-12.23-9.03c-8.1-1.55-12.65-3.1-12.65-9.19s5.01-9.86,12.8-9.86c4.65,0,8,1.24,10.89,4.39l-.67.72c-2.89-3.2-5.78-4.13-10.12-4.13Z"/><path class="cls-1" d="M289.98,38.41c-2.48,0-4.65-1.65-4.65-4.13V12.39h-3.87v-1.03h3.87V2.02h1.03v9.34h6.45v1.03h-6.45v21.89c.15,2.01,1.81,3.1,3.61,3.1,2.38,0,4.23-1.19,4.34-1.29l.57.83c-.05.05-2.06,1.5-4.9,1.5Z"/><path class="cls-1" d="M299.38,11.36h1.03v15.02c0,7.59,2.48,11.25,7.59,11.25s10.07-3.87,11.67-9.24V11.36h1.03v24.73c0,.62.31,1.03.83,1.03v1.03c-.41,0-.57,0-.72-.1-.67-.26-1.14-1.08-1.14-1.96v-4.75c-2.32,4.49-6.87,7.33-11.67,7.33-5.68,0-8.62-4.18-8.62-12.29v-15.02Z"/><path class="cls-1" d="M339.9,10.95c4.9,0,8.78,3.1,10.94,6.66V.47h1.03v35.62c0,.62.31,1.03.83,1.03v1.03c-.26,0-.46,0-.67-.1-.77-.31-1.19-1.13-1.19-1.96v-3.51c-2.27,3.56-6.4,6.09-10.48,6.09-7.49,0-12.9-6.97-12.9-13.84,0-7.38,5.26-13.88,12.44-13.88ZM350.84,19.78c-1.55-4.28-6.61-7.79-10.94-7.79-6.97,0-11.41,6.45-11.41,12.85s5.27,12.8,11.87,12.8c4.18,0,10.22-3.82,10.48-8.21v-9.65Z"/><path class="cls-1" d="M360.6.47h1.03v3.98h-1.03V.47ZM360.6,11.36h1.03v26.79h-1.03V11.36Z"/><path class="cls-1" d="M368.34,24.83c0-7.54,5.83-13.88,12.75-13.88s12.75,6.35,12.75,13.88-5.73,13.84-12.75,13.84-12.75-6.35-12.75-13.84ZM381.04,37.64c6.4,0,11.77-5.88,11.77-12.85s-5.37-12.8-11.72-12.8-11.72,5.94-11.72,12.96,5.27,12.7,11.67,12.7Z"/><path class="cls-1" d="M398.13,34.33l.77-.67c2.74,2.68,5.63,3.97,9.45,3.97,5.27,0,8.93-2.43,8.93-6.5s-3.36-4.85-9.34-6.25c-5.47-1.34-8.21-2.06-8.21-6.35,0-5.32,4.39-7.59,9.45-7.59,4.34,0,7.54,1.65,8.72,3.87l-.93.41c-1.29-2.12-4.59-3.25-8-3.25-4.44,0-8.21,1.91-8.21,6.4,0,3.56,2.22,4.23,7.23,5.47,6.4,1.5,10.32,2.48,10.32,7.12s-3.98,7.69-9.96,7.69c-4.08,0-7.54-1.39-10.22-4.34Z"/></svg>